<svg xmlns="http://www.w3.org/2000/svg" xmlns:xlink="http://www.w3.org/1999/xlink" width="122" zoomAndPan="magnify" viewBox="0 0 91.5 75.749998" height="101" preserveAspectRatio="xMidYMid meet" version="1.0"><defs><g/><clipPath id="91fac0430f"><path d="M 15 0.0820312 L 29.996094 0.0820312 L 29.996094 25.414062 L 15 25.414062 Z M 15 0.0820312 " clip-rule="nonzero"/></clipPath><clipPath id="09c5c57ec3"><path d="M 10.855469 0.824219 L 29.039062 0.824219 L 29.039062 55.042969 L 10.855469 55.042969 Z M 10.855469 0.824219 " clip-rule="nonzero"/></clipPath></defs><path fill="#94796f" d="M 84.046875 31.761719 C 81.503906 27.53125 76.429688 24.851562 71.492188 25.277344 C 65.882812 25.757812 60.574219 28.789062 55.078125 29.613281 C 50.285156 30.332031 45.421875 29.976562 40.617188 29.535156 C 31.875 28.71875 22.535156 27.40625 14.328125 31.390625 C 7.625 34.652344 2.472656 41.082031 0.839844 48.375 C 0.144531 51.511719 0.078125 55.144531 1.828125 57.96875 C 3.839844 61.230469 7.570312 61.855469 11.105469 61.367188 C 15.417969 60.777344 19.429688 59.285156 23.851562 59.335938 C 28.515625 59.390625 33.089844 60.542969 37.539062 61.828125 C 45.671875 64.183594 54.035156 67.398438 62.660156 66.421875 C 69.96875 65.589844 76.746094 61.566406 81.210938 55.75 C 86.277344 49.144531 88.566406 39.273438 84.046875 31.761719 Z M 84.046875 31.761719 " fill-opacity="1" fill-rule="nonzero"/><g clip-path="url(#91fac0430f)"><path fill="#000000" d="M 16.449219 1.222656 C 16.457031 1.238281 16.46875 1.253906 16.476562 1.269531 L 17.371094 2.886719 L 16.726562 3.257812 L 15.773438 1.691406 C 15.761719 1.671875 15.75 1.652344 15.738281 1.628906 C 15.503906 1.226562 15.472656 0.804688 15.671875 0.695312 C 15.867188 0.582031 16.214844 0.816406 16.449219 1.222656 Z M 15.363281 0.164062 C 14.96875 0.390625 14.90625 1.023438 15.222656 1.570312 C 15.238281 1.597656 15.253906 1.625 15.273438 1.648438 L 30.003906 25.382812 L 16.691406 0.8125 C 16.679688 0.789062 16.667969 0.765625 16.652344 0.742188 C 16.335938 0.195312 15.757812 -0.0625 15.363281 0.164062 " fill-opacity="1" fill-rule="nonzero"/></g><g clip-path="url(#09c5c57ec3)"><path fill="#000000" d="M 18.175781 43.246094 C 16.585938 42.5 14.871094 41.109375 15.015625 39.628906 C 15.0625 38.910156 15.5 38.261719 16.121094 37.867188 C 16.738281 37.464844 17.554688 37.355469 18.207031 37.679688 C 18.539062 37.847656 18.957031 38.390625 19.363281 38.359375 C 19.777344 38.328125 19.75 37.738281 19.824219 37.433594 C 19.933594 36.976562 20.078125 36.566406 20.4375 36.21875 C 20.933594 35.726562 21.667969 35.511719 22.359375 35.628906 C 23.09375 35.726562 23.75 36.007812 24.0625 36.519531 C 24.386719 37.027344 24.398438 37.703125 24.28125 38.355469 C 24.164062 39.011719 23.929688 39.664062 23.640625 40.289062 C 23.082031 41.550781 22.277344 42.640625 21.4375 43.632812 C 21.363281 43.726562 21.285156 43.816406 21.210938 43.90625 C 20.167969 43.933594 19.121094 43.679688 18.175781 43.246094 Z M 28.660156 33.984375 C 28.03125 32.339844 26.710938 30.980469 25.296875 29.78125 C 22.441406 27.359375 19.015625 25.65625 16.492188 23.5625 C 15.230469 22.523438 14.277344 21.308594 13.503906 20.097656 C 12.734375 18.890625 12.199219 17.65625 11.875 16.421875 C 11.226562 13.953125 11.527344 11.398438 12.257812 8.960938 C 12.996094 6.542969 14.300781 4.203125 15.832031 2.667969 C 17.371094 1.121094 19.199219 0.941406 20.441406 1.464844 C 21.722656 1.96875 22.496094 2.933594 22.917969 3.566406 C 23.347656 4.226562 23.476562 4.621094 23.511719 4.613281 C 23.527344 4.613281 23.453125 4.207031 23.050781 3.503906 C 22.660156 2.824219 21.890625 1.765625 20.546875 1.175781 C 19.25 0.5625 17.28125 0.6875 15.566406 2.386719 C 13.914062 4.019531 12.511719 6.496094 11.703125 9.007812 C 10.898438 11.535156 10.542969 14.160156 11.1875 16.703125 C 11.503906 17.972656 12.042969 19.242188 12.832031 20.492188 C 13.617188 21.730469 14.613281 23.003906 15.945312 24.109375 C 18.589844 26.3125 21.984375 28.007812 24.710938 30.347656 C 26.066406 31.503906 27.277344 32.792969 27.839844 34.304688 C 28.402344 35.796875 28.261719 37.5625 27.429688 39.242188 C 26.578125 40.90625 25.113281 42.523438 23.449219 43.378906 C 22.988281 43.597656 22.503906 43.75 22.011719 43.832031 C 22.832031 42.867188 23.660156 41.738281 24.238281 40.472656 C 24.550781 39.816406 24.816406 39.121094 24.957031 38.386719 C 25.09375 37.667969 25.121094 36.859375 24.6875 36.152344 C 24.253906 35.4375 23.347656 35.070312 22.507812 34.953125 C 21.617188 34.789062 20.558594 35.074219 19.898438 35.726562 C 19.445312 36.15625 19.144531 36.734375 19.074219 37.347656 C 18.914062 37.226562 18.742188 37.117188 18.550781 37.027344 C 17.597656 36.546875 16.40625 36.730469 15.628906 37.238281 C 14.828125 37.738281 14.277344 38.527344 14.203125 39.46875 C 14.109375 40.410156 14.636719 41.464844 15.382812 42.191406 C 16.101562 42.929688 16.949219 43.519531 17.855469 43.949219 C 18.699219 44.34375 19.613281 44.617188 20.550781 44.6875 C 20.035156 45.292969 19.546875 45.882812 19.128906 46.480469 C 18.472656 47.414062 18.007812 48.386719 17.820312 49.371094 C 17.617188 50.34375 17.6875 51.347656 18.03125 52.207031 C 18.367188 53.074219 18.945312 53.738281 19.519531 54.171875 C 20.695312 55.042969 21.8125 55.105469 22.527344 55.066406 C 23.257812 55.015625 23.640625 54.859375 23.640625 54.839844 C 23.644531 54.804688 23.261719 54.90625 22.550781 54.90625 C 21.859375 54.894531 20.785156 54.769531 19.707031 53.925781 C 19.179688 53.507812 18.671875 52.886719 18.390625 52.105469 C 18.101562 51.324219 18.058594 50.414062 18.269531 49.5 C 18.59375 47.855469 19.800781 46.386719 21.257812 44.699219 C 22.085938 44.671875 22.925781 44.472656 23.746094 44.074219 C 25.671875 43.046875 27.230469 41.269531 28.195312 39.414062 C 29.132812 37.523438 29.285156 35.632812 28.660156 33.984375 " fill-opacity="1" fill-rule="nonzero"/></g><g fill="#000000" fill-opacity="1"><g transform="translate(30.509505, 42.188478)"><g><path d="M 0.34375 -3.234375 C 0.34375 -3.390625 0.359375 -3.695312 0.390625 -4.15625 C 0.429688 -4.613281 0.488281 -5.101562 0.5625 -5.625 C 0.644531 -6.15625 0.742188 -6.609375 0.859375 -6.984375 C 0.972656 -7.367188 1.109375 -7.5625 1.265625 -7.5625 C 1.472656 -7.5625 1.582031 -7.421875 1.59375 -7.140625 C 1.601562 -6.867188 1.609375 -6.628906 1.609375 -6.421875 C 1.546875 -6.398438 1.476562 -6.390625 1.40625 -6.390625 C 1.363281 -6.390625 1.328125 -6.394531 1.296875 -6.40625 C 1.273438 -6.414062 1.253906 -6.421875 1.234375 -6.421875 C 1.171875 -6.109375 1.113281 -5.640625 1.0625 -5.015625 C 1.019531 -4.398438 1.003906 -3.78125 1.015625 -3.15625 C 1.023438 -2.539062 1.066406 -2.039062 1.140625 -1.65625 C 1.179688 -1.507812 1.207031 -1.378906 1.21875 -1.265625 C 1.226562 -1.148438 1.242188 -1.035156 1.265625 -0.921875 C 1.378906 -0.554688 1.519531 -0.375 1.6875 -0.375 C 1.78125 -0.375 1.894531 -0.410156 2.03125 -0.484375 C 2.4375 -0.734375 2.796875 -1.054688 3.109375 -1.453125 C 3.421875 -1.859375 3.722656 -2.253906 4.015625 -2.640625 L 5.4375 -4.84375 C 5.476562 -4.894531 5.507812 -4.941406 5.53125 -4.984375 C 5.550781 -5.023438 5.609375 -5.046875 5.703125 -5.046875 C 5.703125 -5.046875 5.707031 -5.046875 5.71875 -5.046875 C 5.726562 -5.046875 5.75 -5.046875 5.78125 -5.046875 C 5.820312 -5.023438 5.875 -4.988281 5.9375 -4.9375 C 6.007812 -4.894531 6.046875 -4.863281 6.046875 -4.84375 C 6.046875 -4.664062 5.925781 -4.367188 5.6875 -3.953125 C 5.445312 -3.535156 5.160156 -3.09375 4.828125 -2.625 C 4.492188 -2.15625 4.164062 -1.71875 3.84375 -1.3125 C 3.53125 -0.914062 3.289062 -0.640625 3.125 -0.484375 C 3.007812 -0.347656 2.789062 -0.164062 2.46875 0.0625 C 2.15625 0.289062 1.867188 0.40625 1.609375 0.40625 C 1.265625 0.40625 1 0.269531 0.8125 0 C 0.632812 -0.269531 0.507812 -0.601562 0.4375 -1 C 0.375 -1.40625 0.34375 -1.804688 0.34375 -2.203125 C 0.34375 -2.609375 0.34375 -2.953125 0.34375 -3.234375 Z M 1.03125 -9.96875 C 1.03125 -9.988281 1.078125 -10.085938 1.171875 -10.265625 C 1.265625 -10.453125 1.425781 -10.546875 1.65625 -10.546875 C 1.832031 -10.546875 2.003906 -10.488281 2.171875 -10.375 L 2.03125 -9.90625 C 1.9375 -9.695312 1.773438 -9.59375 1.546875 -9.59375 C 1.203125 -9.59375 1.03125 -9.71875 1.03125 -9.96875 Z M 1.03125 -9.96875 "/></g></g></g><g fill="#000000" fill-opacity="1"><g transform="translate(35.184327, 42.188478)"><g><path d="M 1.140625 -1.09375 L 2.03125 -3.609375 C 2.257812 -4.316406 2.554688 -5.117188 2.921875 -6.015625 C 3.285156 -6.910156 3.617188 -7.703125 3.921875 -8.390625 C 4.097656 -8.773438 4.289062 -9.195312 4.5 -9.65625 C 4.707031 -10.113281 4.972656 -10.34375 5.296875 -10.34375 C 5.566406 -10.34375 5.742188 -10.222656 5.828125 -9.984375 C 5.910156 -9.742188 5.953125 -9.457031 5.953125 -9.125 C 5.953125 -8.789062 5.953125 -8.460938 5.953125 -8.140625 L 5.875 -5.4375 C 5.851562 -4.65625 5.851562 -3.945312 5.875 -3.3125 C 5.894531 -2.6875 5.921875 -2.039062 5.953125 -1.375 C 5.972656 -1.144531 6 -0.941406 6.03125 -0.765625 C 6.0625 -0.597656 6.09375 -0.410156 6.125 -0.203125 C 6.257812 -0.316406 6.394531 -0.507812 6.53125 -0.78125 C 6.664062 -1.0625 6.78125 -1.28125 6.875 -1.4375 C 6.988281 -1.644531 7.097656 -1.851562 7.203125 -2.0625 C 7.304688 -2.269531 7.414062 -2.488281 7.53125 -2.71875 L 8.21875 -3.984375 C 8.28125 -4.117188 8.332031 -4.234375 8.375 -4.328125 C 8.425781 -4.421875 8.488281 -4.523438 8.5625 -4.640625 C 8.675781 -4.847656 8.832031 -5.140625 9.03125 -5.515625 C 9.238281 -5.890625 9.484375 -6.078125 9.765625 -6.078125 C 9.804688 -6.078125 9.832031 -6.070312 9.84375 -6.0625 C 9.851562 -6.050781 9.875 -6.046875 9.90625 -6.046875 C 10.132812 -5.984375 10.3125 -5.769531 10.4375 -5.40625 C 10.5625 -5.050781 10.691406 -4.65625 10.828125 -4.21875 C 10.960938 -3.789062 11.140625 -3.410156 11.359375 -3.078125 C 11.578125 -2.742188 11.867188 -2.578125 12.234375 -2.578125 C 12.554688 -2.578125 12.9375 -2.710938 13.375 -2.984375 C 13.8125 -3.265625 14.222656 -3.535156 14.609375 -3.796875 C 14.992188 -4.054688 15.289062 -4.1875 15.5 -4.1875 C 15.664062 -4.1875 15.75 -4.085938 15.75 -3.890625 C 15.75 -3.742188 15.539062 -3.5 15.125 -3.15625 C 14.707031 -2.8125 14.21875 -2.488281 13.65625 -2.1875 C 13.101562 -1.894531 12.609375 -1.75 12.171875 -1.75 C 11.710938 -1.75 11.296875 -1.953125 10.921875 -2.359375 C 10.554688 -2.773438 10.269531 -3.25 10.0625 -3.78125 C 9.863281 -4.3125 9.753906 -4.722656 9.734375 -5.015625 C 9.585938 -4.921875 9.414062 -4.6875 9.21875 -4.3125 C 9.03125 -3.9375 8.878906 -3.65625 8.765625 -3.46875 C 8.671875 -3.3125 8.59375 -3.175781 8.53125 -3.0625 C 8.476562 -2.945312 8.40625 -2.820312 8.3125 -2.6875 L 7.046875 -0.203125 C 6.953125 -0.0234375 6.820312 0.171875 6.65625 0.390625 C 6.5 0.609375 6.304688 0.71875 6.078125 0.71875 C 6.015625 0.71875 5.890625 0.671875 5.703125 0.578125 C 5.492188 0.441406 5.332031 0.101562 5.21875 -0.4375 C 5.101562 -0.988281 5.03125 -1.65625 5 -2.4375 C 4.96875 -3.21875 4.953125 -4.015625 4.953125 -4.828125 C 4.953125 -5.640625 4.957031 -6.382812 4.96875 -7.0625 C 4.976562 -7.738281 4.984375 -8.238281 4.984375 -8.5625 C 4.984375 -8.539062 4.976562 -8.519531 4.96875 -8.5 C 4.957031 -8.488281 4.953125 -8.484375 4.953125 -8.484375 L 3.0625 -3.953125 C 2.894531 -3.535156 2.742188 -3.125 2.609375 -2.71875 C 2.472656 -2.320312 2.347656 -1.921875 2.234375 -1.515625 C 2.160156 -1.328125 2.070312 -1.066406 1.96875 -0.734375 C 1.875 -0.398438 1.75 -0.0976562 1.59375 0.171875 C 1.445312 0.441406 1.269531 0.578125 1.0625 0.578125 C 0.769531 0.578125 0.570312 0.378906 0.46875 -0.015625 C 0.363281 -0.421875 0.316406 -0.925781 0.328125 -1.53125 C 0.335938 -2.132812 0.390625 -2.765625 0.484375 -3.421875 C 0.578125 -4.078125 0.664062 -4.664062 0.75 -5.1875 C 0.84375 -5.71875 0.914062 -6.085938 0.96875 -6.296875 C 1.082031 -6.773438 1.195312 -7.101562 1.3125 -7.28125 C 1.425781 -7.46875 1.523438 -7.5625 1.609375 -7.5625 C 1.722656 -7.5625 1.804688 -7.503906 1.859375 -7.390625 C 1.921875 -7.273438 1.953125 -7.140625 1.953125 -6.984375 C 1.953125 -6.890625 1.914062 -6.820312 1.84375 -6.78125 C 1.78125 -6.75 1.738281 -6.734375 1.71875 -6.734375 C 1.5625 -6.578125 1.441406 -6.210938 1.359375 -5.640625 C 1.273438 -5.066406 1.222656 -4.488281 1.203125 -3.90625 C 1.179688 -3.320312 1.160156 -2.898438 1.140625 -2.640625 C 1.140625 -2.460938 1.125 -2.335938 1.09375 -2.265625 C 1.070312 -2.203125 1.070312 -2.078125 1.09375 -1.890625 C 1.09375 -1.773438 1.097656 -1.660156 1.109375 -1.546875 C 1.128906 -1.429688 1.140625 -1.28125 1.140625 -1.09375 Z M 1.140625 -1.09375 "/></g></g></g><g fill="#000000" fill-opacity="1"><g transform="translate(49.896268, 42.188478)"><g><path d="M 6.984375 -7.015625 C 6.492188 -7.015625 5.976562 -6.734375 5.4375 -6.171875 C 4.90625 -5.609375 4.382812 -4.921875 3.875 -4.109375 C 3.375 -3.296875 2.921875 -2.488281 2.515625 -1.6875 C 2.117188 -0.882812 1.832031 -0.253906 1.65625 0.203125 C 1.539062 0.503906 1.4375 0.753906 1.34375 0.953125 C 1.25 1.160156 1.203125 1.472656 1.203125 1.890625 L 1.03125 4.8125 C 1.03125 5.039062 1.019531 5.203125 1 5.296875 C 0.976562 5.390625 0.96875 5.550781 0.96875 5.78125 L 0.140625 15.328125 C 0.00390625 16.316406 -0.1875 17.039062 -0.4375 17.5 C -0.695312 17.957031 -0.953125 18.1875 -1.203125 18.1875 C -1.429688 18.1875 -1.640625 17.984375 -1.828125 17.578125 C -2.023438 17.179688 -2.148438 16.601562 -2.203125 15.84375 C -2.222656 15.226562 -2.203125 14.488281 -2.140625 13.625 C -2.085938 12.769531 -2.015625 12.054688 -1.921875 11.484375 C -1.804688 10.703125 -1.710938 10.035156 -1.640625 9.484375 C -1.578125 8.929688 -1.5 8.421875 -1.40625 7.953125 C -1.3125 7.484375 -1.203125 6.976562 -1.078125 6.4375 C -0.953125 5.90625 -0.785156 5.257812 -0.578125 4.5 C -0.515625 4.25 -0.40625 3.894531 -0.25 3.4375 C -0.101562 2.976562 0.0351562 2.535156 0.171875 2.109375 C 0.304688 1.691406 0.375 1.425781 0.375 1.3125 C 0.445312 0.59375 0.488281 -0.0351562 0.5 -0.578125 C 0.507812 -1.128906 0.535156 -1.757812 0.578125 -2.46875 L 0.71875 -5.390625 C 0.71875 -5.710938 0.742188 -6.132812 0.796875 -6.65625 C 0.859375 -7.1875 0.890625 -7.738281 0.890625 -8.3125 C 0.890625 -8.75 0.878906 -9.125 0.859375 -9.4375 C 0.835938 -9.75 0.894531 -10.003906 1.03125 -10.203125 C 1.1875 -10.179688 1.273438 -10.160156 1.296875 -10.140625 C 1.328125 -10.117188 1.363281 -10.039062 1.40625 -9.90625 L 1.4375 -8.25 C 1.4375 -8.019531 1.4375 -7.8125 1.4375 -7.625 C 1.4375 -7.445312 1.425781 -7.253906 1.40625 -7.046875 C 1.382812 -6.859375 1.382812 -6.691406 1.40625 -6.546875 C 1.425781 -6.398438 1.4375 -6.203125 1.4375 -5.953125 C 1.4375 -5.097656 1.425781 -4.285156 1.40625 -3.515625 C 1.382812 -2.753906 1.375 -1.9375 1.375 -1.0625 L 2.75 -3.671875 C 3 -4.085938 3.328125 -4.59375 3.734375 -5.1875 C 4.148438 -5.78125 4.59375 -6.328125 5.0625 -6.828125 C 5.539062 -7.335938 6.007812 -7.648438 6.46875 -7.765625 C 6.664062 -7.835938 6.859375 -7.875 7.046875 -7.875 C 7.578125 -7.875 7.9375 -7.648438 8.125 -7.203125 C 8.320312 -6.753906 8.398438 -6.207031 8.359375 -5.5625 C 8.328125 -4.925781 8.25 -4.316406 8.125 -3.734375 C 8 -3.148438 7.867188 -2.71875 7.734375 -2.4375 C 7.828125 -2.488281 8.015625 -2.597656 8.296875 -2.765625 C 8.585938 -2.941406 8.898438 -3.128906 9.234375 -3.328125 C 9.566406 -3.535156 9.832031 -3.695312 10.03125 -3.8125 C 10.175781 -3.882812 10.425781 -4.007812 10.78125 -4.1875 C 11.132812 -4.375 11.539062 -4.582031 12 -4.8125 C 12.457031 -5.039062 12.890625 -5.234375 13.296875 -5.390625 C 13.710938 -5.554688 14.035156 -5.640625 14.265625 -5.640625 C 14.472656 -5.640625 14.578125 -5.554688 14.578125 -5.390625 C 14.578125 -5.160156 14.492188 -5.023438 14.328125 -4.984375 C 14.171875 -4.941406 13.976562 -4.863281 13.75 -4.75 C 13.425781 -4.601562 12.925781 -4.363281 12.25 -4.03125 C 11.570312 -3.707031 10.851562 -3.332031 10.09375 -2.90625 C 9.34375 -2.476562 8.671875 -2.054688 8.078125 -1.640625 C 7.484375 -1.234375 7.101562 -0.867188 6.9375 -0.546875 C 6.78125 -0.253906 6.550781 0.117188 6.25 0.578125 C 5.957031 1.035156 5.613281 1.492188 5.21875 1.953125 C 4.832031 2.410156 4.421875 2.789062 3.984375 3.09375 C 3.546875 3.394531 3.125 3.546875 2.71875 3.546875 C 2.375 3.546875 2.203125 3.335938 2.203125 2.921875 C 2.203125 2.671875 2.335938 2.367188 2.609375 2.015625 C 2.890625 1.660156 3.222656 1.289062 3.609375 0.90625 C 3.992188 0.53125 4.363281 0.191406 4.71875 -0.109375 C 5.082031 -0.421875 5.351562 -0.648438 5.53125 -0.796875 C 5.894531 -1.085938 6.144531 -1.289062 6.28125 -1.40625 C 6.425781 -1.519531 6.535156 -1.664062 6.609375 -1.84375 C 6.691406 -2.03125 6.816406 -2.367188 6.984375 -2.859375 C 7.023438 -2.992188 7.101562 -3.273438 7.21875 -3.703125 C 7.332031 -4.140625 7.421875 -4.613281 7.484375 -5.125 C 7.554688 -5.644531 7.5625 -6.085938 7.5 -6.453125 C 7.445312 -6.828125 7.273438 -7.015625 6.984375 -7.015625 Z M -1.0625 17.21875 C -1.019531 16.96875 -0.960938 16.738281 -0.890625 16.53125 C -0.828125 16.320312 -0.769531 16.070312 -0.71875 15.78125 C -0.582031 14.976562 -0.460938 14 -0.359375 12.84375 C -0.253906 11.6875 -0.160156 10.5 -0.078125 9.28125 C -0.00390625 8.0625 0.0664062 7.007812 0.140625 6.125 L 0.234375 4.5 C 0.210938 4.550781 0.203125 4.554688 0.203125 4.515625 C 0.203125 4.484375 0.179688 4.523438 0.140625 4.640625 C 0.140625 4.660156 0.132812 4.679688 0.125 4.703125 C 0.113281 4.734375 0.109375 4.757812 0.109375 4.78125 C -0.0976562 5.351562 -0.285156 6.101562 -0.453125 7.03125 C -0.628906 7.957031 -0.789062 8.929688 -0.9375 9.953125 C -1.09375 10.972656 -1.207031 11.941406 -1.28125 12.859375 C -1.363281 13.773438 -1.40625 14.519531 -1.40625 15.09375 C -1.40625 15.53125 -1.398438 15.835938 -1.390625 16.015625 C -1.378906 16.203125 -1.351562 16.367188 -1.3125 16.515625 C -1.28125 16.660156 -1.253906 16.894531 -1.234375 17.21875 Z M 3.328125 2.4375 C 3.535156 2.394531 3.785156 2.234375 4.078125 1.953125 C 4.378906 1.679688 4.660156 1.390625 4.921875 1.078125 C 5.191406 0.773438 5.335938 0.550781 5.359375 0.40625 C 5.242188 0.476562 5.035156 0.648438 4.734375 0.921875 C 4.441406 1.203125 4.15625 1.484375 3.875 1.765625 C 3.601562 2.054688 3.421875 2.28125 3.328125 2.4375 Z M 3.328125 2.4375 "/></g></g></g><g fill="#000000" fill-opacity="1"><g transform="translate(62.923898, 42.188478)"><g><path d="M 1.65625 -6.46875 L 2.09375 -7.328125 C 2.488281 -8.078125 2.921875 -9 3.390625 -10.09375 C 3.859375 -11.195312 4.304688 -12.363281 4.734375 -13.59375 C 5.171875 -14.820312 5.546875 -16.003906 5.859375 -17.140625 C 6.171875 -18.273438 6.359375 -19.253906 6.421875 -20.078125 C 6.421875 -20.328125 6.425781 -20.515625 6.4375 -20.640625 C 6.457031 -20.765625 6.453125 -20.96875 6.421875 -21.25 C 6.378906 -21.59375 6.351562 -21.796875 6.34375 -21.859375 C 6.332031 -21.929688 6.320312 -21.976562 6.3125 -22 C 6.300781 -22.019531 6.269531 -22.125 6.21875 -22.3125 C 6.007812 -22.289062 5.847656 -22.210938 5.734375 -22.078125 C 5.617188 -21.953125 5.503906 -21.832031 5.390625 -21.71875 C 5.046875 -21.238281 4.707031 -20.507812 4.375 -19.53125 C 4.050781 -18.5625 3.734375 -17.46875 3.421875 -16.25 C 3.109375 -15.039062 2.828125 -13.804688 2.578125 -12.546875 C 2.328125 -11.285156 2.117188 -10.117188 1.953125 -9.046875 C 1.796875 -7.984375 1.695312 -7.125 1.65625 -6.46875 Z M 1.140625 5.8125 C 0.910156 4.4375 0.75 3.066406 0.65625 1.703125 C 0.5625 0.335938 0.515625 -1.039062 0.515625 -2.4375 L 0.65625 -4.78125 C 0.632812 -4.957031 0.609375 -5.082031 0.578125 -5.15625 C 0.554688 -5.226562 0.570312 -5.351562 0.625 -5.53125 C 0.738281 -5.851562 0.8125 -6.207031 0.84375 -6.59375 C 0.875 -6.988281 0.914062 -7.367188 0.96875 -7.734375 C 0.988281 -8.054688 1.066406 -8.640625 1.203125 -9.484375 C 1.335938 -10.335938 1.515625 -11.34375 1.734375 -12.5 C 1.953125 -13.65625 2.207031 -14.835938 2.5 -16.046875 C 2.800781 -17.265625 3.132812 -18.398438 3.5 -19.453125 C 3.875 -20.503906 4.269531 -21.359375 4.6875 -22.015625 C 5.113281 -22.671875 5.566406 -23 6.046875 -23 C 6.523438 -23 6.832031 -22.75 6.96875 -22.25 C 7.113281 -21.757812 7.1875 -21.253906 7.1875 -20.734375 C 7.1875 -19.492188 6.976562 -18.179688 6.5625 -16.796875 C 6.15625 -15.410156 5.671875 -14.039062 5.109375 -12.6875 C 4.546875 -11.332031 4.007812 -10.070312 3.5 -8.90625 C 3.414062 -8.71875 3.328125 -8.539062 3.234375 -8.375 C 3.140625 -8.21875 3.046875 -8.050781 2.953125 -7.875 L 2.4375 -6.875 C 2.144531 -6.300781 1.910156 -5.90625 1.734375 -5.6875 C 1.566406 -5.46875 1.484375 -5.15625 1.484375 -4.75 L 1.4375 -3.265625 C 1.394531 -2.617188 1.367188 -1.835938 1.359375 -0.921875 C 1.347656 -0.00390625 1.363281 0.894531 1.40625 1.78125 C 1.457031 2.675781 1.523438 3.4375 1.609375 4.0625 L 1.953125 6.5 C 2.003906 6.75 2.050781 6.894531 2.09375 6.9375 C 2.144531 6.988281 2.175781 7.03125 2.1875 7.0625 C 2.195312 7.09375 2.175781 7.222656 2.125 7.453125 C 2.0625 7.484375 1.972656 7.5 1.859375 7.5 C 1.628906 7.5 1.476562 7.382812 1.40625 7.15625 C 1.34375 6.925781 1.253906 6.476562 1.140625 5.8125 Z M 1.140625 5.8125 "/></g></g></g><g fill="#000000" fill-opacity="1"><g transform="translate(66.361268, 42.188478)"><g><path d="M -2.46875 20.171875 C -2.082031 20.171875 -1.707031 20.035156 -1.34375 19.765625 C -0.976562 19.492188 -0.703125 19.253906 -0.515625 19.046875 C 0.242188 18.285156 0.914062 17.359375 1.5 16.265625 C 2.082031 15.179688 2.597656 14.015625 3.046875 12.765625 C 3.492188 11.515625 3.863281 10.273438 4.15625 9.046875 C 4.457031 7.828125 4.695312 6.710938 4.875 5.703125 C 4.90625 5.546875 4.945312 5.28125 5 4.90625 C 5.0625 4.539062 5.117188 4.175781 5.171875 3.8125 C 5.234375 3.445312 5.265625 3.195312 5.265625 3.0625 C 5.191406 3.101562 5.125 3.164062 5.0625 3.25 C 5.007812 3.332031 4.945312 3.414062 4.875 3.5 L 3.921875 4.78125 C 3.117188 5.851562 2.273438 7.03125 1.390625 8.3125 C 0.503906 9.601562 -0.304688 10.921875 -1.046875 12.265625 C -1.796875 13.617188 -2.375 14.9375 -2.78125 16.21875 C -2.875 16.5 -2.976562 16.847656 -3.09375 17.265625 C -3.207031 17.691406 -3.269531 18.125 -3.28125 18.5625 C -3.289062 19 -3.226562 19.378906 -3.09375 19.703125 C -3.050781 19.785156 -2.972656 19.882812 -2.859375 20 C -2.742188 20.113281 -2.613281 20.171875 -2.46875 20.171875 Z M 6.46875 0.625 L 6.421875 0.75 Z M 6.46875 0.625 C 6.582031 0.550781 6.65625 0.484375 6.6875 0.421875 C 6.71875 0.367188 6.78125 0.296875 6.875 0.203125 L 8.734375 -1.953125 C 8.828125 -2.046875 8.894531 -2.113281 8.9375 -2.15625 C 8.976562 -2.207031 9.046875 -2.289062 9.140625 -2.40625 L 11.890625 -5.296875 C 12.304688 -5.640625 12.601562 -5.8125 12.78125 -5.8125 C 12.925781 -5.8125 13.003906 -5.738281 13.015625 -5.59375 C 13.023438 -5.457031 12.992188 -5.332031 12.921875 -5.21875 C 12.859375 -5.132812 12.789062 -5.09375 12.71875 -5.09375 C 12.695312 -5.09375 12.664062 -5.097656 12.625 -5.109375 C 12.59375 -5.117188 12.554688 -5.113281 12.515625 -5.09375 C 12.421875 -5.0625 12.3125 -4.976562 12.1875 -4.84375 C 12.0625 -4.707031 11.953125 -4.601562 11.859375 -4.53125 L 6.53125 1.4375 C 6.375 1.625 6.285156 1.753906 6.265625 1.828125 C 6.253906 1.910156 6.238281 2.09375 6.21875 2.375 C 5.925781 4.113281 5.59375 5.875 5.21875 7.65625 C 4.851562 9.445312 4.375 11.1875 3.78125 12.875 C 3.1875 14.5625 2.382812 16.160156 1.375 17.671875 C 1.144531 18.015625 0.828125 18.425781 0.421875 18.90625 C 0.0234375 19.382812 -0.410156 19.804688 -0.890625 20.171875 C -1.367188 20.546875 -1.851562 20.734375 -2.34375 20.734375 C -2.570312 20.734375 -2.773438 20.6875 -2.953125 20.59375 C -3.410156 20.363281 -3.691406 19.976562 -3.796875 19.4375 C -3.898438 18.894531 -3.875 18.269531 -3.71875 17.5625 C -3.570312 16.851562 -3.363281 16.128906 -3.09375 15.390625 C -2.820312 14.660156 -2.535156 13.984375 -2.234375 13.359375 C -1.929688 12.742188 -1.679688 12.265625 -1.484375 11.921875 C -1.066406 11.210938 -0.722656 10.625 -0.453125 10.15625 C -0.191406 9.6875 0.164062 9.109375 0.625 8.421875 C 0.96875 7.890625 1.3125 7.378906 1.65625 6.890625 C 2 6.398438 2.351562 5.914062 2.71875 5.4375 L 5.4375 1.890625 C 5.476562 1.734375 5.523438 1.425781 5.578125 0.96875 C 5.640625 0.507812 5.691406 -0.00390625 5.734375 -0.578125 C 5.785156 -1.148438 5.820312 -1.679688 5.84375 -2.171875 C 5.863281 -2.671875 5.875 -3.035156 5.875 -3.265625 C 5.894531 -3.492188 5.914062 -3.804688 5.9375 -4.203125 C 5.96875 -4.609375 5.984375 -5 5.984375 -5.375 C 5.984375 -5.757812 5.9375 -6.03125 5.84375 -6.1875 C 5.800781 -6.144531 5.691406 -5.988281 5.515625 -5.71875 C 5.347656 -5.457031 5.179688 -5.191406 5.015625 -4.921875 C 4.859375 -4.660156 4.753906 -4.5 4.703125 -4.4375 L 3.640625 -2.71875 C 3.503906 -2.488281 3.296875 -2.160156 3.015625 -1.734375 C 2.742188 -1.304688 2.445312 -0.914062 2.125 -0.5625 C 1.8125 -0.207031 1.492188 -0.03125 1.171875 -0.03125 C 1.054688 -0.03125 0.941406 -0.0664062 0.828125 -0.140625 C 0.578125 -0.296875 0.425781 -0.617188 0.375 -1.109375 C 0.332031 -1.609375 0.351562 -2.1875 0.4375 -2.84375 C 0.53125 -3.507812 0.671875 -4.1875 0.859375 -4.875 C 1.046875 -5.5625 1.234375 -6.1875 1.421875 -6.75 C 1.617188 -7.3125 1.796875 -7.734375 1.953125 -8.015625 C 2.066406 -8.191406 2.171875 -8.335938 2.265625 -8.453125 C 2.359375 -8.566406 2.519531 -8.625 2.75 -8.625 C 2.789062 -8.582031 2.847656 -8.515625 2.921875 -8.421875 C 2.992188 -8.328125 3.003906 -8.222656 2.953125 -8.109375 C 2.929688 -8.015625 2.875 -7.96875 2.78125 -7.96875 C 2.6875 -7.96875 2.597656 -8.015625 2.515625 -8.109375 L 2.125 -7.328125 C 1.988281 -6.953125 1.832031 -6.460938 1.65625 -5.859375 C 1.488281 -5.253906 1.34375 -4.613281 1.21875 -3.9375 C 1.09375 -3.257812 1.023438 -2.632812 1.015625 -2.0625 C 1.003906 -1.488281 1.066406 -1.050781 1.203125 -0.75 C 1.316406 -0.800781 1.398438 -0.835938 1.453125 -0.859375 C 1.515625 -0.878906 1.566406 -0.9375 1.609375 -1.03125 C 1.910156 -1.375 2.226562 -1.796875 2.5625 -2.296875 C 2.894531 -2.804688 3.175781 -3.253906 3.40625 -3.640625 L 5.296875 -6.765625 C 5.410156 -6.953125 5.523438 -7.070312 5.640625 -7.125 C 5.753906 -7.1875 5.898438 -7.21875 6.078125 -7.21875 C 6.335938 -7.125 6.515625 -6.867188 6.609375 -6.453125 C 6.710938 -6.046875 6.769531 -5.570312 6.78125 -5.03125 C 6.800781 -4.5 6.796875 -3.972656 6.765625 -3.453125 C 6.742188 -2.941406 6.722656 -2.546875 6.703125 -2.265625 C 6.679688 -1.878906 6.632812 -1.398438 6.5625 -0.828125 C 6.5 -0.253906 6.46875 0.226562 6.46875 0.625 Z M 6.46875 0.625 "/></g></g></g><g fill="#ffffff" fill-opacity="1"><g transform="translate(16.352599, 54.685008)"><g><path d="M 0.296875 -3.15625 C 0.296875 -3.78125 0.429688 -4.335938 0.703125 -4.828125 C 0.972656 -5.316406 1.347656 -5.695312 1.828125 -5.96875 C 2.304688 -6.238281 2.851562 -6.375 3.46875 -6.375 C 4.21875 -6.375 4.859375 -6.175781 5.390625 -5.78125 C 5.921875 -5.382812 6.273438 -4.847656 6.453125 -4.171875 L 4.765625 -4.171875 C 4.640625 -4.429688 4.460938 -4.628906 4.234375 -4.765625 C 4.003906 -4.910156 3.742188 -4.984375 3.453125 -4.984375 C 2.972656 -4.984375 2.585938 -4.816406 2.296875 -4.484375 C 2.003906 -4.148438 1.859375 -3.707031 1.859375 -3.15625 C 1.859375 -2.601562 2.003906 -2.160156 2.296875 -1.828125 C 2.585938 -1.503906 2.972656 -1.34375 3.453125 -1.34375 C 3.742188 -1.34375 4.003906 -1.410156 4.234375 -1.546875 C 4.460938 -1.691406 4.640625 -1.894531 4.765625 -2.15625 L 6.453125 -2.15625 C 6.273438 -1.46875 5.921875 -0.925781 5.390625 -0.53125 C 4.859375 -0.144531 4.21875 0.046875 3.46875 0.046875 C 2.851562 0.046875 2.304688 -0.0859375 1.828125 -0.359375 C 1.347656 -0.628906 0.972656 -1.007812 0.703125 -1.5 C 0.429688 -1.988281 0.296875 -2.539062 0.296875 -3.15625 Z M 0.296875 -3.15625 "/></g></g></g><g fill="#ffffff" fill-opacity="1"><g transform="translate(26.237427, 54.685008)"><g><path d="M 2.84375 0.078125 C 2.351562 0.078125 1.910156 -0.0234375 1.515625 -0.234375 C 1.117188 -0.453125 0.804688 -0.753906 0.578125 -1.140625 C 0.359375 -1.523438 0.25 -1.976562 0.25 -2.5 C 0.25 -3.019531 0.363281 -3.472656 0.59375 -3.859375 C 0.820312 -4.253906 1.132812 -4.554688 1.53125 -4.765625 C 1.925781 -4.972656 2.367188 -5.078125 2.859375 -5.078125 C 3.347656 -5.078125 3.789062 -4.972656 4.1875 -4.765625 C 4.582031 -4.554688 4.894531 -4.253906 5.125 -3.859375 C 5.351562 -3.472656 5.46875 -3.019531 5.46875 -2.5 C 5.46875 -1.988281 5.347656 -1.535156 5.109375 -1.140625 C 4.878906 -0.753906 4.566406 -0.453125 4.171875 -0.234375 C 3.773438 -0.0234375 3.332031 0.078125 2.84375 0.078125 Z M 2.84375 -1.25 C 3.132812 -1.25 3.382812 -1.359375 3.59375 -1.578125 C 3.800781 -1.796875 3.90625 -2.101562 3.90625 -2.5 C 3.90625 -2.90625 3.800781 -3.210938 3.59375 -3.421875 C 3.394531 -3.640625 3.148438 -3.75 2.859375 -3.75 C 2.554688 -3.75 2.304688 -3.644531 2.109375 -3.4375 C 1.910156 -3.226562 1.8125 -2.914062 1.8125 -2.5 C 1.8125 -2.101562 1.910156 -1.796875 2.109375 -1.578125 C 2.304688 -1.359375 2.550781 -1.25 2.84375 -1.25 Z M 2.84375 -1.25 "/></g></g></g><g fill="#ffffff" fill-opacity="1"><g transform="translate(34.998979, 54.685008)"><g><path d="M 5.5 -5.015625 L 5.5 0 L 3.96875 0 L 3.96875 -0.6875 C 3.8125 -0.457031 3.597656 -0.273438 3.328125 -0.140625 C 3.066406 -0.015625 2.773438 0.046875 2.453125 0.046875 C 2.066406 0.046875 1.726562 -0.0351562 1.4375 -0.203125 C 1.144531 -0.367188 0.914062 -0.613281 0.75 -0.9375 C 0.59375 -1.257812 0.515625 -1.640625 0.515625 -2.078125 L 0.515625 -5.015625 L 2.046875 -5.015625 L 2.046875 -2.296875 C 2.046875 -1.953125 2.128906 -1.6875 2.296875 -1.5 C 2.472656 -1.320312 2.707031 -1.234375 3 -1.234375 C 3.300781 -1.234375 3.535156 -1.320312 3.703125 -1.5 C 3.878906 -1.6875 3.96875 -1.953125 3.96875 -2.296875 L 3.96875 -5.015625 Z M 5.5 -5.015625 "/></g></g></g><g fill="#ffffff" fill-opacity="1"><g transform="translate(44.093023, 54.685008)"><g><path d="M 3.34375 -1.296875 L 3.34375 0 L 2.5625 0 C 2.007812 0 1.578125 -0.132812 1.265625 -0.40625 C 0.953125 -0.675781 0.796875 -1.125 0.796875 -1.75 L 0.796875 -3.734375 L 0.1875 -3.734375 L 0.1875 -5.015625 L 0.796875 -5.015625 L 0.796875 -6.234375 L 2.328125 -6.234375 L 2.328125 -5.015625 L 3.34375 -5.015625 L 3.34375 -3.734375 L 2.328125 -3.734375 L 2.328125 -1.71875 C 2.328125 -1.570312 2.363281 -1.460938 2.4375 -1.390625 C 2.507812 -1.328125 2.628906 -1.296875 2.796875 -1.296875 Z M 3.34375 -1.296875 "/></g></g></g><g fill="#ffffff" fill-opacity="1"><g transform="translate(50.778762, 54.685008)"><g><path d="M 5.5 -5.015625 L 5.5 0 L 3.96875 0 L 3.96875 -0.6875 C 3.8125 -0.457031 3.597656 -0.273438 3.328125 -0.140625 C 3.066406 -0.015625 2.773438 0.046875 2.453125 0.046875 C 2.066406 0.046875 1.726562 -0.0351562 1.4375 -0.203125 C 1.144531 -0.367188 0.914062 -0.613281 0.75 -0.9375 C 0.59375 -1.257812 0.515625 -1.640625 0.515625 -2.078125 L 0.515625 -5.015625 L 2.046875 -5.015625 L 2.046875 -2.296875 C 2.046875 -1.953125 2.128906 -1.6875 2.296875 -1.5 C 2.472656 -1.320312 2.707031 -1.234375 3 -1.234375 C 3.300781 -1.234375 3.535156 -1.320312 3.703125 -1.5 C 3.878906 -1.6875 3.96875 -1.953125 3.96875 -2.296875 L 3.96875 -5.015625 Z M 5.5 -5.015625 "/></g></g></g><g fill="#ffffff" fill-opacity="1"><g transform="translate(59.872803, 54.685008)"><g><path d="M 2.09375 -4.171875 C 2.269531 -4.453125 2.492188 -4.671875 2.765625 -4.828125 C 3.035156 -4.984375 3.335938 -5.0625 3.671875 -5.0625 L 3.671875 -3.4375 L 3.25 -3.4375 C 2.863281 -3.4375 2.570312 -3.351562 2.375 -3.1875 C 2.1875 -3.03125 2.09375 -2.742188 2.09375 -2.328125 L 2.09375 0 L 0.5625 0 L 0.5625 -5.015625 L 2.09375 -5.015625 Z M 2.09375 -4.171875 "/></g></g></g><g fill="#ffffff" fill-opacity="1"><g transform="translate(66.756238, 54.685008)"><g><path d="M 5.28125 -2.59375 C 5.28125 -2.445312 5.269531 -2.296875 5.25 -2.140625 L 1.78125 -2.140625 C 1.800781 -1.828125 1.898438 -1.585938 2.078125 -1.421875 C 2.253906 -1.253906 2.472656 -1.171875 2.734375 -1.171875 C 3.117188 -1.171875 3.382812 -1.332031 3.53125 -1.65625 L 5.171875 -1.65625 C 5.085938 -1.332031 4.9375 -1.035156 4.71875 -0.765625 C 4.5 -0.503906 4.222656 -0.296875 3.890625 -0.140625 C 3.554688 0.00390625 3.1875 0.078125 2.78125 0.078125 C 2.289062 0.078125 1.851562 -0.0234375 1.46875 -0.234375 C 1.082031 -0.453125 0.78125 -0.753906 0.5625 -1.140625 C 0.351562 -1.523438 0.25 -1.976562 0.25 -2.5 C 0.25 -3.019531 0.351562 -3.472656 0.5625 -3.859375 C 0.78125 -4.253906 1.082031 -4.554688 1.46875 -4.765625 C 1.851562 -4.972656 2.289062 -5.078125 2.78125 -5.078125 C 3.269531 -5.078125 3.703125 -4.972656 4.078125 -4.765625 C 4.453125 -4.566406 4.742188 -4.28125 4.953125 -3.90625 C 5.171875 -3.53125 5.28125 -3.09375 5.28125 -2.59375 Z M 3.703125 -2.984375 C 3.703125 -3.253906 3.613281 -3.46875 3.4375 -3.625 C 3.257812 -3.78125 3.035156 -3.859375 2.765625 -3.859375 C 2.503906 -3.859375 2.285156 -3.78125 2.109375 -3.625 C 1.929688 -3.476562 1.820312 -3.265625 1.78125 -2.984375 Z M 3.703125 -2.984375 "/></g></g></g></svg>